<svg width="150" height="150" viewBox="0 0 150 150" fill="none" xmlns="http://www.w3.org/2000/svg">
<g clip-path="url(#clip0_36:2)">
<path d="M75.0001 0C84.8491 1.1745e-07 94.6021 1.93994 103.701 5.70904C112.801 9.47812 121.069 15.0026 128.033 21.967C134.998 28.9314 140.522 37.1993 144.291 46.2988C148.06 55.3982 150 65.1509 150 75C150 84.849 148.06 94.602 144.291 103.701C140.522 112.801 134.997 121.069 128.033 128.033C121.069 134.998 112.801 140.522 103.701 144.291C94.6021 148.06 84.8491 150 75 150L75.0001 75V0Z" fill="white"/>
<path d="M75 150C55.1087 150 36.0322 142.098 21.967 128.033C7.90178 113.968 -5.53337e-07 94.8915 0 75C5.53337e-07 55.1087 7.90178 36.0322 21.967 21.967C36.0322 7.90178 55.1088 -2.372e-07 75 0V75V150Z" fill="black"/>
<path d="M74.5 150C95.2107 150 112 133.211 112 112.5C112 91.7893 95.2107 75 74.5 75C53.7893 75 37 91.7893 37 112.5C37 133.211 53.7893 150 74.5 150Z" fill="white"/>
<path d="M74.75 131.5C85.1053 131.5 93.5 123.105 93.5 112.75C93.5 102.395 85.1053 94 74.75 94C64.3947 94 56 102.395 56 112.75C56 123.105 64.3947 131.5 74.75 131.5Z" fill="black"/>
<path d="M74.5 75C95.2107 75 112 58.2107 112 37.5C112 16.7893 95.2107 0 74.5 0C53.7893 0 37 16.7893 37 37.5C37 58.2107 53.7893 75 74.5 75Z" fill="black"/>
<path d="M74.75 56.5C85.1053 56.5 93.5 48.1053 93.5 37.75C93.5 27.3947 85.1053 19 74.75 19C64.3947 19 56 27.3947 56 37.75C56 48.1053 64.3947 56.5 74.75 56.5Z" fill="white"/>
</g>
<defs>
<clipPath id="clip0_36:2">
<rect width="150" height="150" fill="white"/>
</clipPath>
</defs>
</svg>
